<?xml version="1.0" encoding="UTF-8" standalone="no"?>
<svg xmlns:dc="http://purl.org/dc/elements/1.1/" xmlns:cc="http://creativecommons.org/ns#" xmlns:rdf="http://www.w3.org/1999/02/22-rdf-syntax-ns#" xmlns:svg="http://www.w3.org/2000/svg" xmlns="http://www.w3.org/2000/svg" viewBox="0 0 406.81729 126.53285" height="126.53285" width="406.81729" xml:space="preserve" id="svg2" version="1.1"><metadata id="metadata8"><rdf:RDF><cc:Work rdf:about=""><dc:format>image/svg+xml</dc:format><dc:type rdf:resource="http://purl.org/dc/dcmitype/StillImage"/></cc:Work></rdf:RDF></metadata><defs id="defs6"><clipPath id="clipPath22" clipPathUnits="userSpaceOnUse"><path id="path20" d="M 0,0 H 306 V 95 H 0 Z"/></clipPath></defs><g transform="matrix(1.3333333,0,0,-1.3333333,0,126.53285)" id="g10"><g id="g12"><g transform="translate(0,-0.100365)" id="g14"><g id="g16"><g clip-path="url(#clipPath22)" id="g18"><g id="g24"><path id="path26" style="fill:#094270;fill-opacity:1;fill-rule:nonzero;stroke:none" d="m 110.523,50.664 h 4.774 c 1.008,0 1.797,0.012 2.285,0.152 0.488,0.153 0.652,0.27 0.856,0.739 0.124,0.324 0.214,0.84 0.21,1.582 0.016,1.551 -0.207,2.277 -0.437,2.48 -0.188,0.231 -0.773,0.395 -2.043,0.383 h -5.645 z M 107,41.137 v 17.957 h 10.07 c 1.907,0.019 3.305,-0.614 4.106,-1.727 0.797,-1.109 0.992,-2.508 0.996,-3.992 -0.004,-0.75 0.012,-2.137 -0.649,-3.426 -0.652,-1.312 -2.132,-2.41 -4.55,-2.379 h -6.45 V 41.137 H 107"/><path id="path28" style="fill:#094270;fill-opacity:1;fill-rule:nonzero;stroke:none" d="m 138.059,56.137 c -1.512,0.004 -2.286,-0.207 -2.598,-0.539 -0.344,-0.305 -0.578,-1.071 -0.574,-2.637 v -5.883 c 0,-1.578 0.301,-2.226 0.668,-2.508 0.363,-0.316 1.183,-0.468 2.504,-0.468 h 2.461 c 1.328,0 2.148,0.152 2.511,0.468 0.367,0.282 0.664,0.93 0.664,2.508 v 5.883 c 0.012,1.566 -0.23,2.332 -0.57,2.637 -0.313,0.332 -1.09,0.543 -2.594,0.539 h -2.472 m 2.476,3.093 c 2.344,-0.031 4.027,-0.363 5.188,-1.437 1.152,-1.09 1.5,-2.707 1.5,-4.832 v -5.883 c 0,-2.027 -0.411,-3.613 -1.575,-4.672 -1.168,-1.039 -2.851,-1.398 -5.117,-1.398 h -2.472 c -2.27,0 -3.957,0.359 -5.121,1.398 -1.168,1.059 -1.579,2.645 -1.575,4.672 v 5.883 c 0.004,2.125 0.348,3.742 1.496,4.832 1.161,1.074 2.844,1.406 5.2,1.437 h 2.472"/><path id="path30" style="fill:#094270;fill-opacity:1;fill-rule:nonzero;stroke:none" d="m 158.301,41.137 v 17.957 h 3.527 v -14.86 h 9.348 v -3.097 h -12.875"/><path id="path32" style="fill:#094270;fill-opacity:1;fill-rule:nonzero;stroke:none" d="m 184.582,41.141 v 7.382 l -7.394,10.571 h 4.183 l 5.059,-7.192 5.054,7.192 h 4.262 L 188.109,48.52 v -7.379 h -3.527"/><path id="path34" style="fill:#094270;fill-opacity:1;fill-rule:nonzero;stroke:none" d="M 209.293,41.141 V 56 h -5.945 v 3.094 h 15.414 V 56 h -5.946 V 41.141 h -3.523"/><path id="path36" style="fill:#094270;fill-opacity:1;fill-rule:nonzero;stroke:none" d="m 228.609,41.137 v 17.957 h 13.243 V 56 h -9.715 v -4.172 h 9.297 v -2.98 h -9.297 v -4.614 h 9.715 v -3.097 h -13.243"/><path id="path38" style="fill:#094270;fill-opacity:1;fill-rule:nonzero;stroke:none" d="m 258.719,41.008 h -0.012 c -1.805,0 -3.34,0.515 -4.418,1.562 -1.082,1.043 -1.633,2.563 -1.629,4.356 v 6.386 c -0.027,2.477 0.938,4.165 2.543,4.985 1.582,0.82 3.582,0.922 5.836,0.933 h 1.715 c 2,0 3.473,-0.386 4.461,-1.371 0.98,-0.996 1.277,-2.41 1.277,-4.109 v -1.246 h -3.523 v 1.184 c 0.008,1.117 -0.16,1.71 -0.414,1.957 -0.227,0.261 -0.805,0.492 -2.098,0.492 h -1.172 c -1.594,0 -2.777,-0.075 -3.551,-0.285 -0.777,-0.227 -1.078,-0.477 -1.308,-0.954 -0.149,-0.332 -0.242,-0.824 -0.242,-1.523 V 48.84 c 0,-1.399 0.031,-2.488 0.214,-3.203 0.204,-0.727 0.422,-1.02 0.961,-1.27 0.371,-0.16 0.938,-0.265 1.746,-0.265 h 2.473 c 1.227,0 2.106,0.066 2.637,0.226 0.539,0.18 0.68,0.324 0.84,0.668 0.093,0.242 0.16,0.617 0.156,1.156 v 2.043 h 3.527 v -2.261 c 0.032,-2.047 -0.82,-3.496 -2.203,-4.164 -1.347,-0.68 -3.023,-0.754 -4.883,-0.762 h -2.933"/><path id="path40" style="fill:#094270;fill-opacity:1;fill-rule:nonzero;stroke:none" d="m 292.148,41.137 v 7.597 h -9.3 v -7.597 h -3.52 v 17.957 h 3.524 l -0.004,-7.266 h 9.3 v 7.266 h 3.528 V 41.137 h -3.528"/><path id="path42" style="fill:#094270;fill-opacity:1;fill-rule:nonzero;stroke:none" d="m 303.926,58.668 c -0.106,-0.633 -0.594,-0.996 -1.156,-0.996 -0.821,0 -1.36,0.609 -1.36,1.406 0,0.813 0.504,1.418 1.348,1.418 0.582,0 1.058,-0.344 1.144,-0.984 h -0.492 c -0.062,0.297 -0.324,0.472 -0.652,0.472 -0.481,0 -0.742,-0.379 -0.742,-0.894 0,-0.496 0.293,-0.914 0.754,-0.914 0.347,0 0.605,0.187 0.64,0.492 z m -1.242,-1.465 c 0.976,0 1.785,0.785 1.785,1.859 0,1.083 -0.809,1.86 -1.785,1.86 -0.996,0 -1.789,-0.777 -1.789,-1.86 0,-1.074 0.793,-1.859 1.789,-1.859 z m 0,4.227 c 1.281,0 2.429,-0.922 2.429,-2.368 0,-1.437 -1.148,-2.367 -2.429,-2.367 -1.289,0 -2.434,0.93 -2.434,2.367 0,1.446 1.145,2.368 2.434,2.368"/><path id="path44" style="fill:#00adef;fill-opacity:1;fill-rule:nonzero;stroke:none" d="M 44.008,95 C 22.246,94.996 4.113,79.52 0,58.973 h 18.363 c 1.356,3.918 3.578,7.429 6.461,10.324 4.942,4.922 11.668,7.937 19.184,7.945 7.519,-0.008 14.246,-3.023 19.18,-7.945 4.925,-4.942 7.945,-11.668 7.949,-19.184 C 71.133,42.594 68.113,35.867 63.188,30.93 58.254,26.008 51.527,22.988 44.008,22.984 36.492,22.988 29.766,26.008 24.824,30.93 21.969,33.797 19.758,37.27 18.402,41.148 H 0.035 V 18.273 c 0,-19.296 16.699,-18.16 16.699,-18.16 l 0.012,14.344 C 24.301,8.668 33.75,5.23 44.008,5.223 68.801,5.23 88.887,25.316 88.895,50.113 88.887,74.91 68.801,94.996 44.008,95"/><path id="path46" style="fill:#00adef;fill-opacity:1;fill-rule:nonzero;stroke:none" d="m 111.879,18.68 h -2.047 v 11.554 h -4.102 v 1.848 h 10.309 v -1.848 h -4.16 V 18.68"/><path id="path48" style="fill:#00adef;fill-opacity:1;fill-rule:nonzero;stroke:none" d="m 128.641,25.41 v 1.871 c 0,1.223 -0.215,2.129 -0.637,2.551 -0.488,0.523 -0.988,0.606 -3.457,0.606 -2.977,0 -3.457,-0.504 -3.457,-3.579 0,-0.824 0,-0.824 0.015,-1.488 v -1.105 c -0.015,-1.93 0.165,-2.852 0.622,-3.336 0.527,-0.524 1.007,-0.606 3.5,-0.606 1.644,0 2.312,0.141 2.753,0.586 0.422,0.442 0.661,1.406 0.661,2.633 z m 0.043,6.293 c 1.062,-0.523 1.644,-1.449 1.91,-2.953 0.097,-0.645 0.121,-1.23 0.121,-3.199 0,-2.168 -0.024,-2.813 -0.141,-3.516 -0.402,-2.672 -1.672,-3.476 -5.469,-3.476 -2.593,0 -3.433,0.121 -4.32,0.64 -0.941,0.563 -1.406,1.348 -1.629,2.797 -0.121,0.684 -0.14,1.266 -0.14,3.356 0,2.007 0.019,2.652 0.14,3.336 0.426,2.691 1.711,3.515 5.508,3.515 2.41,0 3.176,-0.101 4.02,-0.5"/><path id="path50" style="fill:#00adef;fill-opacity:1;fill-rule:nonzero;stroke:none" d="m 145.746,32.082 v -9.144 c 0,-1.305 -0.117,-2.086 -0.398,-2.649 -0.688,-1.309 -1.871,-1.73 -4.789,-1.73 -2.329,0 -3.114,0.101 -3.914,0.464 -1.372,0.622 -1.793,1.524 -1.793,3.836 v 9.223 h 2.05 v -9.223 c 0,-2.211 0.422,-2.535 3.34,-2.535 3.055,0 3.457,0.305 3.457,2.594 v 9.164 h 2.047"/><path id="path52" style="fill:#00adef;fill-opacity:1;fill-rule:nonzero;stroke:none" d="m 156.641,25.352 c 1.968,0 2.539,0.523 2.539,2.371 0,2.172 -0.348,2.593 -2.196,2.593 h -4.32 v -4.964 z m -6.028,6.73 h 6.489 c 3.093,0 4.144,-1.004 4.144,-3.977 0,-2.511 -0.504,-3.277 -2.375,-3.621 v -0.058 c 1.508,-0.117 2.211,-0.946 2.211,-2.59 V 18.68 h -2.07 v 2.711 c 0,1.668 -0.543,2.195 -2.27,2.195 h -4.078 V 18.68 h -2.051 v 13.402"/><path id="path54" style="fill:#00adef;fill-opacity:1;fill-rule:nonzero;stroke:none" d="m 173.328,28.305 c 0,1.91 -0.363,2.211 -2.754,2.211 -2.777,0 -3.316,-0.325 -3.316,-1.989 0,-1.207 0.258,-1.711 0.984,-1.929 0.363,-0.121 0.563,-0.141 2.59,-0.243 2.43,-0.121 3.199,-0.281 3.82,-0.781 0.68,-0.562 0.965,-1.371 0.965,-2.875 0,-1.668 -0.203,-2.551 -0.765,-3.113 -0.762,-0.809 -1.747,-1.027 -4.664,-1.027 -1.762,0 -2.532,0.078 -3.172,0.3 -1.067,0.383 -1.61,1.125 -1.793,2.453 -0.059,0.442 -0.059,0.543 -0.075,1.567 h 2.008 v -0.301 c 0,-1.164 0.18,-1.726 0.684,-2.031 0.359,-0.238 0.801,-0.281 2.652,-0.281 2.731,0 3.094,0.281 3.094,2.371 0,1.047 -0.223,1.508 -0.824,1.73 -0.219,0.082 -0.641,0.141 -1.164,0.16 l -0.5,0.039 -0.485,0.024 -0.504,0.035 c -1.668,0.086 -1.808,0.105 -2.23,0.164 -1.887,0.301 -2.672,1.324 -2.672,3.457 0,3.195 0.984,3.957 5.145,3.957 2.168,0 3.078,-0.141 3.82,-0.621 0.777,-0.504 1.16,-1.426 1.16,-2.855 v -0.422 h -2.004"/></g></g></g></g></g></g></svg>